<?xml version="1.0" encoding="utf-8"?>
<!-- Generator: Adobe Illustrator 16.0.0, SVG Export Plug-In . SVG Version: 6.00 Build 0)  -->
<!DOCTYPE svg PUBLIC "-//W3C//DTD SVG 1.1//EN" "http://www.w3.org/Graphics/SVG/1.1/DTD/svg11.dtd">
<svg version="1.1" id="Layer_1" xmlns="http://www.w3.org/2000/svg" xmlns:xlink="http://www.w3.org/1999/xlink" x="0px" y="0px"
	 width="48px" height="48px" viewBox="0 0 48 48" enable-background="new 0 0 48 48" xml:space="preserve">
<path d="M13.5,4.5c9.939,0,18,8.061,18,18h6c1.107,0,2.124,0.61,2.646,1.587c0.521,0.975,0.462,2.158-0.15,3.079l-12,18
	C27.438,46,26.502,46.501,25.5,46.501S23.562,46,23.004,45.163l-12-18c-0.615-0.918-0.672-2.104-0.15-3.079
	c0.525-0.976,1.539-1.584,2.646-1.584h6c0-7.833-5.014-14.48-12-16.953C9.378,4.881,11.395,4.5,13.5,4.5z"/>
</svg>
