<?xml version="1.0" encoding="utf-8"?>
<!-- Generator: Adobe Illustrator 16.0.0, SVG Export Plug-In . SVG Version: 6.00 Build 0)  -->
<!DOCTYPE svg PUBLIC "-//W3C//DTD SVG 1.1//EN" "http://www.w3.org/Graphics/SVG/1.1/DTD/svg11.dtd">
<svg version="1.1" id="Layer_1" xmlns="http://www.w3.org/2000/svg" xmlns:xlink="http://www.w3.org/1999/xlink" x="0px" y="0px"
	 width="48px" height="48px" viewBox="0 0 48 48" enable-background="new 0 0 48 48" xml:space="preserve">
<path d="M3,36c0-9.939,8.061-18,18-18v-6c0-1.107,0.611-2.124,1.587-2.646c0.975-0.522,2.157-0.462,3.078,0.15l18,12
	C44.499,22.062,45,22.998,45,24s-0.501,1.938-1.338,2.496l-18,12c-0.918,0.615-2.103,0.672-3.078,0.15
	C21.609,38.121,21,37.107,21,36v-6c-7.833,0-14.48,5.014-16.953,12C3.381,40.122,3,38.105,3,36z"/>
</svg>
