<?xml version="1.0" encoding="utf-8"?>
<!-- Generator: Adobe Illustrator 16.0.0, SVG Export Plug-In . SVG Version: 6.00 Build 0)  -->
<!DOCTYPE svg PUBLIC "-//W3C//DTD SVG 1.1//EN" "http://www.w3.org/Graphics/SVG/1.1/DTD/svg11.dtd">
<svg version="1.1" id="Layer_1" xmlns="http://www.w3.org/2000/svg" xmlns:xlink="http://www.w3.org/1999/xlink" x="0px" y="0px"
	 width="48px" height="48px" viewBox="0 0 48 48" enable-background="new 0 0 48 48" xml:space="preserve">
<path d="M7.5,45.455c6.986-2.473,12-9.121,12-16.953h-6c-1.107,0-2.121-0.609-2.646-1.584c-0.521-0.976-0.465-2.161,0.15-3.079
	l12-18c0.559-0.837,1.494-1.338,2.496-1.338s1.938,0.501,2.496,1.335l12,18c0.612,0.921,0.672,2.104,0.15,3.078
	c-0.522,0.977-1.539,1.588-2.646,1.588h-6c0,9.939-8.061,18-18,18C11.395,46.502,9.378,46.121,7.5,45.455z"/>
</svg>
